<svg width="411" height="406" viewBox="0 0 411 406" fill="none" xmlns="http://www.w3.org/2000/svg">
<path d="M211.963 24.5554L193.271 28.4909C190.751 29.0215 189.138 31.4946 189.669 34.0148L193.604 52.7064C194.135 55.2266 196.608 56.8394 199.128 56.3088L217.82 52.3732C220.34 51.8426 221.953 49.3695 221.422 46.8494L217.487 28.1577C216.956 25.6376 214.483 24.0247 211.963 24.5554Z" stroke="#263238" stroke-linecap="round" stroke-linejoin="round"/>
<path d="M204.36 34.7529L206.742 46.0947" stroke="#263238" stroke-linecap="round" stroke-linejoin="round"/>
<path d="M211.224 39.2241L199.882 41.6152" stroke="#263238" stroke-linecap="round" stroke-linejoin="round"/>
<path d="M400.384 224.403L381.692 228.339C379.172 228.87 377.559 231.343 378.09 233.863L382.025 252.555C382.556 255.075 385.029 256.688 387.549 256.157L406.241 252.221C408.761 251.691 410.374 249.218 409.843 246.698L405.908 228.006C405.377 225.486 402.904 223.873 400.384 224.403Z" stroke="#263238" stroke-linecap="round" stroke-linejoin="round"/>
<path d="M397.144 235.406L390.813 245.117" stroke="#263238" stroke-linecap="round" stroke-linejoin="round"/>
<path d="M398.829 243.431L389.118 237.091" stroke="#263238" stroke-linecap="round" stroke-linejoin="round"/>
<path d="M148.021 346.078L128.919 344.932C126.344 344.778 124.131 346.74 123.976 349.315L122.83 368.417C122.675 370.992 124.638 373.205 127.213 373.36L146.315 374.506C148.89 374.661 151.103 372.698 151.258 370.123L152.404 351.021C152.558 348.446 150.596 346.233 148.021 346.078Z" stroke="#263238" stroke-width="1.0018" stroke-linecap="round" stroke-linejoin="round"/>
<path d="M144.051 359.03L132.471 358.361" stroke="#263238" stroke-linecap="round" stroke-linejoin="round"/>
<path d="M34.0471 213.118L15.9148 207.111C13.4701 206.301 10.8317 207.626 10.0218 210.071L4.01455 228.203C3.20462 230.648 4.52987 233.286 6.97458 234.096L25.1069 240.103C27.5516 240.913 30.19 239.588 30.9999 237.143L37.0072 219.011C37.8171 216.566 36.4918 213.928 34.0471 213.118Z" stroke="#263238" stroke-linecap="round" stroke-linejoin="round"/>
<path d="M27.7652 219.969L13.2627 227.252" stroke="#263238" stroke-linecap="round" stroke-linejoin="round"/>
<path d="M19.4487 217.019C19.6227 217.377 19.687 217.779 19.6336 218.174C19.5803 218.569 19.4117 218.939 19.1489 219.239C18.886 219.538 18.5407 219.753 18.1562 219.857C17.7716 219.961 17.3649 219.95 16.987 219.824C16.609 219.698 16.2766 219.463 16.0314 219.149C15.7862 218.835 15.6391 218.456 15.6085 218.058C15.5779 217.661 15.6652 217.264 15.8594 216.916C16.0536 216.568 16.3461 216.285 16.7003 216.103C16.94 215.978 17.2024 215.903 17.4719 215.881C17.7413 215.86 18.0123 215.893 18.2687 215.978C18.5251 216.064 18.7617 216.2 18.9645 216.379C19.1672 216.558 19.3319 216.775 19.4487 217.019Z" stroke="#263238" stroke-linecap="round" stroke-linejoin="round"/>
<path d="M25.2007 228.434C25.3746 228.793 25.4389 229.194 25.3856 229.589C25.3323 229.984 25.1636 230.354 24.9008 230.654C24.638 230.953 24.2927 231.168 23.9081 231.272C23.5236 231.376 23.1169 231.365 22.7389 231.239C22.361 231.113 22.0286 230.878 21.7834 230.564C21.5382 230.25 21.3911 229.871 21.3605 229.474C21.3299 229.076 21.4171 228.679 21.6114 228.331C21.8056 227.983 22.0981 227.7 22.4523 227.518C22.692 227.393 22.9544 227.318 23.2238 227.296C23.4933 227.275 23.7643 227.308 24.0207 227.393C24.2771 227.479 24.5137 227.615 24.7164 227.794C24.9191 227.973 25.0838 228.19 25.2007 228.434Z" stroke="#263238" stroke-linecap="round" stroke-linejoin="round"/>
<path d="M213.146 340.505C211.25 343.251 208.582 345.373 205.48 346.603C202.378 347.833 198.981 348.116 195.718 347.416C192.455 346.715 189.473 345.063 187.149 342.668C184.825 340.273 183.263 337.243 182.662 333.96C182.06 330.678 182.444 327.29 183.767 324.227C185.09 321.163 187.292 318.56 190.094 316.747C192.896 314.935 196.172 313.994 199.509 314.043C202.846 314.092 206.093 315.13 208.841 317.024C212.524 319.568 215.047 323.47 215.855 327.873C216.662 332.276 215.688 336.82 213.146 340.505Z" fill="#FF8700"/>
<mask id="mask0_345_2344" style="mask-type:luminance" maskUnits="userSpaceOnUse" x="182" y="314" width="35" height="34">
<path d="M213.146 340.505C211.25 343.251 208.582 345.373 205.48 346.603C202.378 347.833 198.981 348.116 195.718 347.416C192.455 346.715 189.473 345.063 187.149 342.668C184.825 340.273 183.263 337.243 182.662 333.96C182.06 330.678 182.444 327.29 183.767 324.227C185.09 321.163 187.292 318.56 190.094 316.747C192.896 314.935 196.172 313.994 199.509 314.043C202.846 314.092 206.093 315.13 208.841 317.024C212.524 319.568 215.047 323.47 215.855 327.873C216.662 332.276 215.688 336.82 213.146 340.505Z" fill="white"/>
</mask>
<g mask="url(#mask0_345_2344)">
<path opacity="0.3" d="M210.947 338.985C209.35 341.294 207.104 343.078 204.492 344.112C201.881 345.145 199.022 345.381 196.277 344.789C193.532 344.198 191.024 342.806 189.07 340.789C187.115 338.773 185.803 336.222 185.299 333.459C184.794 330.697 185.12 327.847 186.235 325.269C187.35 322.692 189.204 320.503 191.563 318.98C193.922 317.456 196.679 316.666 199.487 316.709C202.295 316.753 205.027 317.628 207.337 319.223C210.435 321.366 212.556 324.651 213.233 328.357C213.91 332.062 213.087 335.885 210.947 338.985Z" fill="black" fill-opacity="0.7"/>
<path d="M210.947 338.985C209.35 341.294 207.104 343.078 204.492 344.112C201.881 345.145 199.022 345.381 196.277 344.789C193.532 344.198 191.024 342.806 189.07 340.789C187.115 338.773 185.803 336.222 185.299 333.459C184.794 330.697 185.12 327.847 186.235 325.269C187.35 322.692 189.204 320.503 191.563 318.98C193.922 317.456 196.679 316.666 199.487 316.709C202.295 316.753 205.027 317.628 207.337 319.223C210.435 321.366 212.556 324.651 213.233 328.357C213.91 332.062 213.087 335.885 210.947 338.985Z" stroke="#263238" stroke-linecap="round" stroke-linejoin="round"/>
<path d="M202.904 323.813L203.591 322.833L205.295 324.005L204.608 324.995C205.882 326.323 205.854 327.981 204.608 329.777L204.315 330.198L202.345 328.833L202.73 328.284C203.381 327.367 203.252 326.717 202.593 326.259C201.933 325.801 201.301 325.892 200.641 326.845C199.982 327.798 199.908 328.677 200.54 330.803C201.301 333.35 201.163 334.797 200.119 336.3C198.873 338.132 197.297 338.718 195.612 338.004L194.943 338.966L193.266 337.802L193.935 336.831C192.643 335.494 192.689 333.817 193.935 332.012L194.558 331.096L196.528 332.461L195.813 333.496C195.154 334.413 195.337 335.072 195.996 335.539C196.656 336.007 197.316 335.942 197.975 334.99C198.635 334.037 198.717 333.102 198.076 331.032C197.297 328.513 197.444 327.047 198.497 325.535C199.679 323.758 201.228 323.126 202.904 323.813Z" fill="#FF8700" stroke="#263238" stroke-linecap="round" stroke-linejoin="round"/>
<path opacity="0.2" d="M194.557 317.226C194.559 321.171 193.535 325.049 191.585 328.478C189.635 331.908 186.827 334.771 183.435 336.786C182.631 334.621 182.279 332.315 182.402 330.009C182.525 327.703 183.12 325.447 184.151 323.38C185.182 321.314 186.626 319.481 188.394 317.995C190.162 316.51 192.216 315.403 194.429 314.744C194.518 315.568 194.561 316.397 194.557 317.226Z" fill="black" fill-opacity="0.7"/>
</g>
<path d="M213.146 340.505C211.25 343.251 208.582 345.373 205.48 346.603C202.378 347.833 198.981 348.116 195.718 347.416C192.455 346.715 189.473 345.063 187.149 342.668C184.825 340.273 183.263 337.243 182.662 333.96C182.06 330.678 182.444 327.29 183.767 324.227C185.09 321.163 187.292 318.56 190.094 316.747C192.896 314.935 196.172 313.994 199.509 314.043C202.846 314.092 206.093 315.13 208.841 317.024C212.524 319.568 215.047 323.47 215.855 327.873C216.662 332.276 215.688 336.82 213.146 340.505Z" stroke="#263238" stroke-linecap="round" stroke-linejoin="round"/>
<path d="M175.164 333.589C184.489 333.589 192.048 326.029 192.048 316.704C192.048 307.379 184.489 299.82 175.164 299.82C165.839 299.82 158.279 307.379 158.279 316.704C158.279 326.029 165.839 333.589 175.164 333.589Z" fill="#FF8700" stroke="#263238" stroke-linecap="round" stroke-linejoin="round"/>
<path opacity="0.3" d="M175.163 330.904C183.006 330.904 189.363 324.547 189.363 316.704C189.363 308.862 183.006 302.504 175.163 302.504C167.321 302.504 160.963 308.862 160.963 316.704C160.963 324.547 167.321 330.904 175.163 330.904Z" fill="black" fill-opacity="0.7"/>
<path d="M175.163 330.904C183.006 330.904 189.363 324.547 189.363 316.704C189.363 308.862 183.006 302.504 175.163 302.504C167.321 302.504 160.963 308.862 160.963 316.704C160.963 324.547 167.321 330.904 175.163 330.904Z" stroke="#263238" stroke-linecap="round" stroke-linejoin="round"/>
<path d="M174.127 308.797V307.606H176.198V308.797C178.03 309.173 178.946 310.547 178.946 312.737V313.213H176.546V312.544C176.546 311.39 176.088 310.95 175.281 310.95C174.475 310.95 174.017 311.39 174.017 312.544C174.017 313.699 174.475 314.496 176.179 315.861C178.25 317.519 178.928 318.783 178.928 320.625C178.928 322.814 178.012 324.225 176.179 324.592V325.764H174.109V324.592C172.276 324.225 171.36 322.814 171.36 320.625V319.525H173.751V320.79C173.751 321.944 174.255 322.356 175.062 322.356C175.868 322.356 176.381 321.944 176.381 320.79C176.381 319.635 175.923 318.811 174.21 317.473C172.139 315.833 171.461 314.551 171.461 312.7C171.452 310.575 172.35 309.191 174.127 308.797Z" fill="#FF8700" stroke="#263238" stroke-linecap="round" stroke-linejoin="round"/>
<path d="M269.924 330.886C274.955 323.035 272.668 312.592 264.817 307.561C256.965 302.53 246.522 304.816 241.491 312.668C236.46 320.519 238.747 330.963 246.598 335.994C254.45 341.024 264.893 338.738 269.924 330.886Z" fill="#FF8700" stroke="#263238" stroke-linecap="round" stroke-linejoin="round"/>
<path opacity="0.3" d="M266.108 312.123C268.02 314.181 269.279 316.759 269.725 319.533C270.171 322.306 269.785 325.149 268.615 327.703C267.445 330.256 265.545 332.406 263.153 333.879C260.762 335.352 257.987 336.083 255.18 335.979C252.373 335.875 249.66 334.942 247.384 333.296C245.108 331.65 243.371 329.366 242.393 326.733C241.415 324.1 241.24 321.236 241.89 318.503C242.54 315.77 243.986 313.292 246.045 311.381C247.41 310.111 249.012 309.122 250.76 308.472C252.508 307.821 254.367 307.522 256.23 307.591C258.094 307.66 259.926 308.095 261.62 308.873C263.315 309.651 264.84 310.755 266.108 312.123Z" fill="black" fill-opacity="0.7"/>
<path d="M266.108 312.123C268.02 314.181 269.279 316.759 269.725 319.533C270.171 322.306 269.785 325.149 268.615 327.703C267.445 330.256 265.545 332.406 263.153 333.879C260.762 335.352 257.987 336.083 255.18 335.979C252.373 335.875 249.66 334.942 247.384 333.296C245.108 331.65 243.371 329.366 242.393 326.733C241.415 324.1 241.24 321.236 241.89 318.503C242.54 315.77 243.986 313.292 246.045 311.381C247.41 310.111 249.012 309.122 250.76 308.472C252.508 307.821 254.367 307.522 256.23 307.591C258.094 307.66 259.926 308.095 261.62 308.873C263.315 309.651 264.84 310.755 266.108 312.123Z" stroke="#263238" stroke-linecap="round" stroke-linejoin="round"/>
<path d="M249.572 316.704L248.757 315.788L250.268 314.377L251.084 315.293C252.66 314.377 254.272 314.725 255.756 316.328L256.104 316.695L254.354 318.326L253.896 317.84C253.108 316.997 252.476 316.988 251.89 317.538C251.304 318.087 251.258 318.719 252.037 319.562C252.815 320.405 253.713 320.68 255.884 320.524C258.532 320.323 259.915 320.762 261.171 322.118C262.655 323.722 262.92 325.389 261.858 326.882L262.655 327.743L261.134 329.154L260.337 328.293C258.752 329.264 257.121 328.861 255.637 327.258L254.877 326.452L256.636 324.821L257.497 325.737C258.285 326.58 258.935 326.543 259.531 325.994C260.126 325.444 260.209 324.793 259.421 323.951C258.633 323.108 257.735 322.815 255.582 323.034C252.944 323.245 251.542 322.787 250.296 321.431C248.821 319.819 248.537 318.197 249.572 316.704Z" fill="#FF8700" stroke="#263238" stroke-linecap="round" stroke-linejoin="round"/>
<path opacity="0.2" d="M248.757 248.396C248.757 248.396 248.683 283.43 248.757 285.473C248.83 287.516 251.505 299.819 251.505 299.819L242.994 315.504L250.323 321.404L264.569 307.405C264.569 307.405 276.699 314.89 278.916 325.609C281.133 336.327 294.335 344.133 308.031 373.816C321.727 403.499 337.347 307.405 337.347 307.405L295.086 254.196L248.757 248.396Z" fill="black" fill-opacity="0.7"/>
<path d="M377.951 60.1852L365.006 186.502L357.045 264.209L245.789 252.813L224.14 250.596L210.279 249.176L222.565 129.253L231.186 45.1514L377.951 60.1852Z" fill="white"/>
<mask id="mask1_345_2344" style="mask-type:luminance" maskUnits="userSpaceOnUse" x="210" y="45" width="168" height="220">
<path d="M377.951 60.1852L365.006 186.502L357.045 264.209L245.789 252.813L224.14 250.596L210.279 249.176L222.565 129.253L231.186 45.1514L377.951 60.1852Z" fill="white"/>
</mask>
<g mask="url(#mask1_345_2344)">
<path d="M335.322 64.9402L271.971 58.4448C271.688 58.4159 271.403 58.443 271.13 58.5245C270.858 58.606 270.604 58.7404 270.384 58.9199C270.164 59.0994 269.981 59.3205 269.846 59.5707C269.711 59.8208 269.627 60.0951 269.598 60.3778C269.569 60.6606 269.596 60.9462 269.678 61.2185C269.759 61.4907 269.894 61.7443 270.073 61.9646C270.253 62.1849 270.474 62.3677 270.724 62.5026C270.974 62.6375 271.248 62.7218 271.531 62.7506L334.882 69.2461C335.453 69.3044 336.024 69.1335 336.469 68.771C336.914 68.4084 337.197 67.884 337.255 67.313C337.313 66.742 337.142 66.1712 336.78 65.7263C336.417 65.2813 335.893 64.9985 335.322 64.9402Z" fill="#263238"/>
<path d="M318.575 72.1316L286.904 68.8793C286.618 68.8511 286.332 68.9374 286.109 69.1193C285.885 69.3012 285.743 69.564 285.713 69.8504C285.699 69.9917 285.713 70.1345 285.755 70.2704C285.796 70.4063 285.864 70.5328 285.954 70.6425C286.044 70.7523 286.155 70.8432 286.28 70.9101C286.406 70.9769 286.543 71.0184 286.684 71.0322L318.355 74.2845C318.642 74.3127 318.928 74.2264 319.151 74.0444C319.374 73.8625 319.516 73.5997 319.546 73.3134C319.561 73.1718 319.548 73.0286 319.507 72.8921C319.467 72.7557 319.399 72.6288 319.309 72.5187C319.218 72.4087 319.107 72.3178 318.981 72.2513C318.855 72.1849 318.717 72.1441 318.575 72.1316Z" fill="#263238"/>
<path d="M353.435 165.357L250.607 154.822C250.329 154.79 250.049 154.868 249.827 155.039C249.604 155.21 249.457 155.461 249.416 155.738C249.388 156.024 249.474 156.31 249.656 156.534C249.838 156.757 250.101 156.899 250.387 156.929L353.215 167.547C353.356 167.561 353.499 167.547 353.635 167.506C353.771 167.464 353.897 167.397 354.007 167.306C354.117 167.216 354.208 167.105 354.275 166.98C354.341 166.855 354.383 166.717 354.397 166.576C354.417 166.432 354.408 166.286 354.37 166.146C354.333 166.005 354.267 165.874 354.177 165.76C354.087 165.647 353.975 165.552 353.847 165.483C353.72 165.413 353.579 165.371 353.435 165.357Z" fill="#263238"/>
<path d="M352.674 173.099L233.072 160.85C232.932 160.835 232.789 160.848 232.653 160.888C232.517 160.929 232.391 160.995 232.281 161.085C232.171 161.174 232.08 161.285 232.013 161.41C231.946 161.534 231.904 161.671 231.891 161.812C231.859 162.091 231.937 162.371 232.108 162.593C232.279 162.815 232.529 162.962 232.807 163.003L352.372 175.252C352.513 175.267 352.656 175.253 352.792 175.212C352.928 175.171 353.055 175.104 353.165 175.015C353.276 174.925 353.367 174.814 353.434 174.689C353.502 174.564 353.544 174.427 353.558 174.286C353.573 174.144 353.559 174.001 353.519 173.865C353.478 173.729 353.411 173.602 353.321 173.492C353.231 173.382 353.121 173.291 352.996 173.223C352.87 173.156 352.733 173.114 352.592 173.099H352.674Z" fill="#263238"/>
<path d="M318.365 177.414L232.248 168.592C231.962 168.561 231.676 168.645 231.453 168.826C231.23 169.006 231.087 169.268 231.057 169.553C231.026 169.839 231.111 170.125 231.291 170.348C231.472 170.572 231.733 170.714 232.019 170.744L318.136 179.567C318.277 179.581 318.42 179.567 318.556 179.525C318.692 179.484 318.818 179.416 318.928 179.326C319.038 179.236 319.129 179.125 319.196 179C319.262 178.874 319.304 178.737 319.318 178.596C319.333 178.456 319.32 178.314 319.281 178.178C319.241 178.043 319.175 177.917 319.087 177.807C318.998 177.697 318.889 177.606 318.765 177.539C318.641 177.471 318.505 177.429 318.365 177.414Z" fill="#263238"/>
<path d="M230.927 176.94L227.429 211.08L347.966 223.43L351.464 189.29L230.927 176.94Z" fill="#BFBFBF" stroke="#263238" stroke-miterlimit="10"/>
<path d="M286.202 137.435C297.588 127.948 299.128 111.028 289.642 99.6423C280.155 88.2564 263.235 86.7165 251.849 96.2029C240.463 105.689 238.924 122.609 248.41 133.995C257.896 145.381 274.816 146.921 286.202 137.435Z" fill="#FF8700"/>
<mask id="mask2_345_2344" style="mask-type:luminance" maskUnits="userSpaceOnUse" x="242" y="89" width="54" height="55">
<path d="M286.202 137.435C297.588 127.948 299.128 111.028 289.642 99.6423C280.155 88.2564 263.235 86.7165 251.849 96.2029C240.463 105.689 238.924 122.609 248.41 133.995C257.896 145.381 274.816 146.921 286.202 137.435Z" fill="white"/>
</mask>
<g mask="url(#mask2_345_2344)">
<path opacity="0.5" d="M286.202 137.435C297.588 127.948 299.128 111.028 289.642 99.6423C280.155 88.2564 263.235 86.7165 251.849 96.2029C240.463 105.689 238.924 122.609 248.41 133.995C257.896 145.381 274.816 146.921 286.202 137.435Z" fill="white"/>
</g>
<path d="M286.202 137.435C297.588 127.948 299.128 111.028 289.642 99.6423C280.155 88.2564 263.235 86.7165 251.849 96.2029C240.463 105.689 238.924 122.609 248.41 133.995C257.896 145.381 274.816 146.921 286.202 137.435Z" stroke="#263238" stroke-miterlimit="10"/>
<path d="M269.801 116.756L292.118 127.979C294.2 123.654 295.028 118.833 294.506 114.062C293.985 109.291 292.135 104.762 289.168 100.989L269.801 116.756Z" fill="white"/>
<path d="M269.946 115.547L288.636 100.339C285.845 97.0145 282.254 94.4545 278.201 92.9004L274.802 102.153L269.946 115.547Z" fill="#FF8700"/>
<path d="M272.054 91.3975L269.801 113.495L277.405 92.5976C275.67 92.0062 273.876 91.6038 272.054 91.3975Z" fill="#757575"/>
<path d="M268.638 116.555L271.23 91.3063C266.813 90.9353 262.375 91.7153 258.349 93.5702C254.323 95.4251 250.847 98.2916 248.259 101.89C245.67 105.489 244.059 109.697 243.581 114.104C243.103 118.511 243.776 122.966 245.533 127.036L268.638 116.555Z" fill="#999999"/>
<path d="M266.419 142.335C271.514 142.853 276.648 141.834 281.159 139.41C285.671 136.985 289.353 133.265 291.732 128.73L269.021 117.306L245.87 127.823C247.761 131.803 250.644 135.229 254.244 137.771C257.843 140.312 262.036 141.884 266.419 142.335Z" fill="#BFBFBF"/>
<path d="M312.086 99.4092L309.033 99.0964C308.716 99.0639 308.433 99.2947 308.4 99.6118L308.087 102.665C308.055 102.982 308.286 103.265 308.603 103.298L311.656 103.611C311.973 103.643 312.256 103.412 312.289 103.095L312.602 100.042C312.634 99.7251 312.403 99.4417 312.086 99.4092Z" fill="#FF8700" stroke="#263238" stroke-miterlimit="10"/>
<path d="M354.625 105.324L315.176 101.283C315.083 101.241 315.006 101.17 314.956 101.081C314.905 100.993 314.884 100.89 314.895 100.789C314.907 100.687 314.949 100.592 315.018 100.516C315.086 100.441 315.177 100.389 315.276 100.367L354.725 104.334C354.844 104.357 354.95 104.424 355.022 104.522C355.094 104.62 355.127 104.741 355.115 104.861C355.102 104.982 355.045 105.093 354.954 105.174C354.863 105.254 354.746 105.298 354.625 105.296V105.324Z" fill="#263238"/>
<path d="M350.548 107.027L314.965 103.363C314.838 103.349 314.721 103.285 314.641 103.186C314.56 103.086 314.522 102.959 314.535 102.831C314.54 102.768 314.559 102.706 314.589 102.65C314.619 102.594 314.66 102.544 314.709 102.504C314.759 102.464 314.816 102.434 314.877 102.416C314.939 102.398 315.003 102.393 315.066 102.401L350.649 106.065C350.768 106.089 350.874 106.156 350.946 106.253C351.018 106.351 351.051 106.472 351.038 106.592C351.026 106.713 350.968 106.825 350.878 106.905C350.787 106.986 350.669 107.029 350.548 107.027Z" fill="#263238"/>
<path d="M311.123 108.817L308.07 108.505C307.753 108.472 307.47 108.703 307.437 109.02L307.124 112.073C307.092 112.39 307.323 112.674 307.64 112.706L310.693 113.019C311.01 113.051 311.293 112.821 311.326 112.504L311.639 109.45C311.671 109.133 311.44 108.85 311.123 108.817Z" fill="#757575" stroke="#263238" stroke-linecap="round" stroke-linejoin="round"/>
<path d="M353.665 114.732L314.198 110.692C314.079 110.669 313.973 110.602 313.901 110.504C313.829 110.407 313.796 110.286 313.808 110.165C313.821 110.044 313.878 109.933 313.969 109.852C314.06 109.772 314.177 109.728 314.298 109.73L353.738 113.77C353.866 113.784 353.984 113.847 354.066 113.947C354.148 114.046 354.188 114.173 354.178 114.302C354.164 114.425 354.103 114.539 354.008 114.619C353.912 114.7 353.789 114.74 353.665 114.732Z" fill="#263238"/>
<path d="M349.577 116.445L314.003 112.781C313.875 112.769 313.756 112.706 313.674 112.606C313.591 112.507 313.552 112.378 313.564 112.25C313.576 112.121 313.639 112.002 313.738 111.92C313.838 111.837 313.966 111.798 314.095 111.81L349.678 115.474C349.742 115.481 349.803 115.5 349.86 115.531C349.916 115.561 349.966 115.602 350.006 115.652C350.047 115.702 350.077 115.759 350.095 115.821C350.114 115.882 350.12 115.946 350.113 116.01C350.106 116.074 350.087 116.136 350.057 116.192C350.026 116.249 349.985 116.298 349.935 116.339C349.885 116.379 349.828 116.409 349.767 116.428C349.705 116.446 349.641 116.452 349.577 116.445Z" fill="#263238"/>
<path d="M310.159 118.235L307.106 117.922C306.789 117.89 306.506 118.12 306.473 118.437L306.161 121.491C306.128 121.808 306.359 122.091 306.676 122.124L309.729 122.436C310.046 122.469 310.329 122.238 310.362 121.921L310.675 118.868C310.707 118.551 310.477 118.267 310.159 118.235Z" fill="#999999" stroke="#263238" stroke-linecap="round" stroke-linejoin="round"/>
<path d="M352.674 124.149L313.28 120.1C313.213 120.099 313.146 120.084 313.085 120.056C313.024 120.028 312.969 119.987 312.924 119.937C312.879 119.886 312.846 119.827 312.825 119.763C312.804 119.699 312.797 119.631 312.804 119.564C312.811 119.497 312.832 119.432 312.866 119.373C312.899 119.315 312.945 119.264 312.999 119.224C313.053 119.184 313.115 119.156 313.181 119.141C313.247 119.126 313.315 119.125 313.381 119.138L352.821 123.178C352.884 123.185 352.946 123.204 353.003 123.234C353.059 123.265 353.109 123.306 353.149 123.356C353.19 123.406 353.22 123.463 353.238 123.524C353.256 123.586 353.262 123.65 353.256 123.714C353.249 123.778 353.23 123.84 353.2 123.896C353.169 123.952 353.128 124.002 353.078 124.043C353.028 124.083 352.971 124.113 352.91 124.132C352.848 124.15 352.784 124.156 352.72 124.149H352.674Z" fill="#263238"/>
<path d="M348.614 125.854L313.032 122.189C312.904 122.176 312.788 122.112 312.707 122.012C312.626 121.913 312.588 121.786 312.601 121.658C312.615 121.53 312.678 121.413 312.777 121.33C312.877 121.248 313.004 121.208 313.132 121.218L348.715 124.883C348.844 124.896 348.962 124.96 349.044 125.061C349.125 125.161 349.164 125.29 349.15 125.419C349.137 125.548 349.073 125.666 348.973 125.747C348.872 125.829 348.743 125.867 348.614 125.854Z" fill="#263238"/>
<path d="M309.196 127.651L306.143 127.338C305.825 127.306 305.542 127.536 305.51 127.853L305.197 130.907C305.164 131.224 305.395 131.507 305.712 131.54L308.765 131.852C309.082 131.885 309.366 131.654 309.398 131.337L309.711 128.284C309.743 127.967 309.513 127.683 309.196 127.651Z" fill="#BFBFBF" stroke="#263238" stroke-miterlimit="10"/>
<path d="M351.757 133.558L312.317 129.518C312.253 129.512 312.191 129.494 312.134 129.464C312.078 129.434 312.027 129.393 311.986 129.344C311.946 129.295 311.915 129.238 311.896 129.176C311.877 129.115 311.871 129.051 311.877 128.987C311.891 128.859 311.955 128.741 312.054 128.659C312.153 128.577 312.28 128.537 312.409 128.547L351.858 132.596C351.925 132.597 351.992 132.612 352.053 132.64C352.114 132.669 352.169 132.709 352.214 132.76C352.258 132.81 352.292 132.869 352.313 132.933C352.333 132.998 352.34 133.065 352.333 133.132C352.326 133.199 352.305 133.264 352.272 133.323C352.239 133.381 352.193 133.432 352.139 133.472C352.085 133.512 352.023 133.541 351.957 133.556C351.891 133.57 351.823 133.571 351.757 133.558Z" fill="#263238"/>
<path d="M347.653 135.263L312.071 131.598C311.952 131.575 311.846 131.508 311.774 131.41C311.702 131.313 311.669 131.192 311.681 131.071C311.694 130.951 311.751 130.839 311.842 130.759C311.933 130.678 312.05 130.634 312.171 130.636L347.754 134.301C347.829 134.285 347.907 134.287 347.982 134.307C348.056 134.327 348.124 134.364 348.181 134.415C348.238 134.467 348.282 134.531 348.31 134.603C348.337 134.675 348.347 134.752 348.339 134.829C348.33 134.905 348.304 134.978 348.261 135.043C348.219 135.107 348.162 135.16 348.095 135.198C348.028 135.236 347.954 135.257 347.877 135.261C347.8 135.264 347.723 135.249 347.653 135.217V135.263Z" fill="#263238"/>
<path d="M308.233 137.06L305.18 136.747C304.863 136.714 304.579 136.945 304.547 137.262L304.234 140.315C304.201 140.632 304.432 140.916 304.749 140.948L307.802 141.261C308.119 141.294 308.403 141.063 308.435 140.746L308.748 137.693C308.781 137.376 308.55 137.092 308.233 137.06Z" fill="white" stroke="#263238" stroke-linecap="round" stroke-linejoin="round"/>
<path d="M350.769 142.968L311.32 138.927C311.227 138.885 311.151 138.814 311.1 138.725C311.05 138.637 311.029 138.534 311.04 138.433C311.051 138.332 311.094 138.236 311.162 138.161C311.231 138.085 311.321 138.033 311.421 138.011L350.842 142.006C350.918 141.99 350.996 141.991 351.07 142.011C351.144 142.031 351.213 142.069 351.27 142.12C351.327 142.172 351.371 142.236 351.398 142.308C351.425 142.38 351.435 142.457 351.427 142.533C351.418 142.61 351.392 142.683 351.35 142.747C351.307 142.812 351.25 142.865 351.184 142.903C351.117 142.941 351.042 142.962 350.965 142.966C350.888 142.969 350.812 142.954 350.742 142.922L350.769 142.968Z" fill="#263238"/>
<path d="M346.69 144.644L311.107 140.98C311.04 140.979 310.973 140.964 310.912 140.936C310.851 140.908 310.796 140.867 310.751 140.817C310.707 140.766 310.673 140.707 310.652 140.643C310.632 140.579 310.625 140.511 310.632 140.444C310.639 140.377 310.659 140.312 310.693 140.253C310.726 140.195 310.772 140.144 310.826 140.104C310.88 140.064 310.942 140.035 311.008 140.021C311.074 140.006 311.142 140.005 311.208 140.018L346.782 143.682C346.85 143.682 346.917 143.696 346.979 143.723C347.041 143.75 347.097 143.79 347.142 143.841C347.188 143.891 347.223 143.95 347.244 144.014C347.266 144.078 347.274 144.147 347.267 144.214C347.261 144.282 347.24 144.347 347.207 144.406C347.174 144.465 347.129 144.517 347.074 144.557C347.02 144.598 346.958 144.627 346.891 144.642C346.825 144.657 346.757 144.658 346.69 144.644Z" fill="#263238"/>
<path d="M333.217 211.919L335.468 212.15L336.787 199.272L334.536 199.042L333.217 211.919Z" fill="#757575" stroke="#263238" stroke-linecap="round" stroke-linejoin="round"/>
<path d="M333.42 209.972L335.671 210.203L336.292 204.142L334.041 203.911L333.42 209.972Z" fill="#FF8700" stroke="#263238" stroke-miterlimit="10"/>
<path d="M338.628 209.183L340.879 209.414L342.198 196.536L339.947 196.306L338.628 209.183Z" fill="#757575" stroke="#263238" stroke-linecap="round" stroke-linejoin="round"/>
<path d="M339.587 199.708L338.966 205.769L341.217 205.999L341.838 199.939L339.587 199.708Z" fill="#FF8700" stroke="#263238" stroke-miterlimit="10"/>
<path d="M343.437 212.162L345.688 212.393L347.008 199.515L344.757 199.284L343.437 212.162Z" fill="#757575" stroke="#263238" stroke-linecap="round" stroke-linejoin="round"/>
<path d="M343.933 207.329L346.185 207.56L346.806 201.499L344.554 201.268L343.933 207.329Z" fill="#FF8700" stroke="#263238" stroke-miterlimit="10"/>
<path d="M328.407 208.858L330.658 209.088L331.978 196.211L329.727 195.98L328.407 208.858Z" fill="#757575" stroke="#263238" stroke-linecap="round" stroke-linejoin="round"/>
<path d="M328.613 206.901L330.864 207.132L331.485 201.071L329.234 200.841L328.613 206.901Z" fill="#FF8700" stroke="#263238" stroke-miterlimit="10"/>
<path d="M322.952 212.134L325.203 212.364L326.523 199.487L324.271 199.256L322.952 212.134Z" fill="#757575" stroke="#263238" stroke-linecap="round" stroke-linejoin="round"/>
<path d="M323.097 210.69L325.348 210.92L325.969 204.86L323.718 204.629L323.097 210.69Z" fill="#FF8700" stroke="#263238" stroke-miterlimit="10"/>
<path d="M318.221 208.29L320.472 208.521L321.791 195.643L319.54 195.413L318.221 208.29Z" fill="#757575" stroke="#263238" stroke-linecap="round" stroke-linejoin="round"/>
<path d="M318.27 207.822L320.521 208.053L321.142 201.992L318.891 201.762L318.27 207.822Z" fill="#FF8700" stroke="#263238" stroke-miterlimit="10"/>
<path d="M312.458 214.507L314.709 214.738L316.028 201.86L313.777 201.63L312.458 214.507Z" fill="#757575" stroke="#263238" stroke-linecap="round" stroke-linejoin="round"/>
<path d="M312.496 214.03L314.747 214.261L315.368 208.2L313.117 207.97L312.496 214.03Z" fill="#FF8700" stroke="#263238" stroke-miterlimit="10"/>
<path d="M308.221 205.869L310.472 206.1L311.791 193.222L309.54 192.991L308.221 205.869Z" fill="#757575" stroke="#263238" stroke-linecap="round" stroke-linejoin="round"/>
<path d="M308.426 203.932L310.677 204.163L311.298 198.102L309.047 197.871L308.426 203.932Z" fill="#FF8700" stroke="#263238" stroke-miterlimit="10"/>
<path d="M303.22 204.613L305.471 204.844L306.79 191.966L304.539 191.735L303.22 204.613Z" fill="#757575" stroke="#263238" stroke-linecap="round" stroke-linejoin="round"/>
<path d="M303.724 199.744L305.975 199.975L306.596 193.914L304.344 193.683L303.724 199.744Z" fill="#FF8700" stroke="#263238" stroke-miterlimit="10"/>
<path d="M297.335 212.17L299.586 212.401L300.905 199.523L298.654 199.293L297.335 212.17Z" fill="#757575" stroke="#263238" stroke-linecap="round" stroke-linejoin="round"/>
<path d="M297.884 206.827L300.135 207.058L300.756 200.997L298.505 200.766L297.884 206.827Z" fill="#FF8700" stroke="#263238" stroke-miterlimit="10"/>
<path d="M292.844 205.981L295.095 206.212L296.414 193.334L294.163 193.104L292.844 205.981Z" fill="#757575" stroke="#263238" stroke-linecap="round" stroke-linejoin="round"/>
<path d="M293.091 203.559L295.342 203.79L295.963 197.729L293.712 197.498L293.091 203.559Z" fill="#FF8700" stroke="#263238" stroke-miterlimit="10"/>
<path d="M287.416 208.838L289.667 209.069L290.986 196.191L288.735 195.961L287.416 208.838Z" fill="#757575" stroke="#263238" stroke-linecap="round" stroke-linejoin="round"/>
<path d="M287.629 206.883L289.88 207.113L290.501 201.053L288.25 200.822L287.629 206.883Z" fill="#FF8700" stroke="#263238" stroke-miterlimit="10"/>
<path d="M281.756 214.097L284.007 214.327L285.326 201.45L283.075 201.219L281.756 214.097Z" fill="#757575" stroke="#263238" stroke-linecap="round" stroke-linejoin="round"/>
<path d="M281.773 214.087L284.024 214.317L284.645 208.257L282.394 208.026L281.773 214.087Z" fill="#FF8700" stroke="#263238" stroke-miterlimit="10"/>
<path d="M277.533 205.414L279.784 205.645L281.104 192.767L278.853 192.537L277.533 205.414Z" fill="#757575" stroke="#263238" stroke-linecap="round" stroke-linejoin="round"/>
<path d="M277.678 203.951L279.929 204.181L280.55 198.121L278.299 197.89L277.678 203.951Z" fill="#FF8700" stroke="#263238" stroke-miterlimit="10"/>
<path d="M273.032 199.243L275.283 199.474L276.603 186.596L274.352 186.366L273.032 199.243Z" fill="#757575" stroke="#263238" stroke-linecap="round" stroke-linejoin="round"/>
<path d="M273.196 197.781L275.447 198.011L276.068 191.951L273.817 191.72L273.196 197.781Z" fill="#FF8700" stroke="#263238" stroke-miterlimit="10"/>
<path d="M267.267 205.534L269.519 205.765L270.838 192.888L268.587 192.657L267.267 205.534Z" fill="#757575" stroke="#263238" stroke-linecap="round" stroke-linejoin="round"/>
<path d="M267.766 200.692L270.017 200.923L270.638 194.862L268.386 194.632L267.766 200.692Z" fill="#FF8700" stroke="#263238" stroke-miterlimit="10"/>
<path d="M261.458 212.292L263.709 212.522L265.028 199.645L262.777 199.414L261.458 212.292Z" fill="#757575" stroke="#263238" stroke-linecap="round" stroke-linejoin="round"/>
<path d="M262.049 206.463L264.3 206.693L264.921 200.633L262.67 200.402L262.049 206.463Z" fill="#FF8700" stroke="#263238" stroke-miterlimit="10"/>
<path d="M257.134 204.493L259.385 204.723L260.704 191.846L258.453 191.615L257.134 204.493Z" fill="#757575" stroke="#263238" stroke-linecap="round" stroke-linejoin="round"/>
<path d="M257.329 202.564L259.58 202.794L260.201 196.734L257.95 196.503L257.329 202.564Z" fill="#FF8700" stroke="#263238" stroke-miterlimit="10"/>
<path d="M252.282 201.84L254.533 202.071L255.853 189.193L253.602 188.963L252.282 201.84Z" fill="#757575" stroke="#263238" stroke-linecap="round" stroke-linejoin="round"/>
<path d="M252.831 196.495L255.082 196.726L255.703 190.665L253.452 190.434L252.831 196.495Z" fill="#FF8700" stroke="#263238" stroke-miterlimit="10"/>
<path d="M246.793 205.339L249.044 205.57L250.363 192.692L248.112 192.462L246.793 205.339Z" fill="#757575" stroke="#263238" stroke-linecap="round" stroke-linejoin="round"/>
<path d="M246.802 205.328L249.053 205.559L249.674 199.498L247.423 199.267L246.802 205.328Z" fill="#FF8700" stroke="#263238" stroke-miterlimit="10"/>
<path d="M242.139 200.787L244.39 201.018L245.709 188.14L243.458 187.91L242.139 200.787Z" fill="#757575" stroke="#263238" stroke-linecap="round" stroke-linejoin="round"/>
<path d="M242.24 199.827L244.491 200.058L245.112 193.998L242.861 193.767L242.24 199.827Z" fill="#FF8700" stroke="#263238" stroke-miterlimit="10"/>
<path d="M236.895 202.007L239.146 202.238L240.466 189.36L238.215 189.13L236.895 202.007Z" fill="#757575" stroke="#263238" stroke-linecap="round" stroke-linejoin="round"/>
<path d="M236.943 201.521L239.194 201.751L239.815 195.691L237.564 195.46L236.943 201.521Z" fill="#FF8700" stroke="#263238" stroke-miterlimit="10"/>
<path d="M231.995 199.829L234.246 200.06L235.566 187.182L233.314 186.952L231.995 199.829Z" fill="#757575" stroke="#263238" stroke-linecap="round" stroke-linejoin="round"/>
<path d="M232.643 193.536L234.895 193.767L235.515 187.706L233.264 187.475L232.643 193.536Z" fill="#FF8700" stroke="#263238" stroke-miterlimit="10"/>
<path d="M347.04 227.719L244.222 217.175C243.935 217.146 243.649 217.233 243.426 217.415C243.203 217.597 243.061 217.859 243.031 218.146C243.015 218.287 243.028 218.429 243.069 218.565C243.109 218.701 243.176 218.827 243.265 218.937C243.354 219.047 243.465 219.138 243.59 219.205C243.715 219.272 243.851 219.314 243.993 219.328L346.82 229.845C347.106 229.873 347.393 229.787 347.616 229.605C347.839 229.423 347.981 229.16 348.011 228.874C348.031 228.593 347.941 228.315 347.76 228.099C347.579 227.884 347.32 227.747 347.04 227.719Z" fill="#263238"/>
<path d="M346.261 235.461L226.686 223.203C226.4 223.175 226.114 223.261 225.891 223.443C225.668 223.625 225.525 223.888 225.495 224.174C225.48 224.316 225.493 224.459 225.534 224.595C225.575 224.732 225.643 224.859 225.733 224.969C225.823 225.079 225.935 225.17 226.061 225.236C226.187 225.303 226.325 225.343 226.466 225.356L346.032 237.614C346.317 237.64 346.6 237.552 346.822 237.37C347.043 237.189 347.183 236.927 347.214 236.643C347.229 236.503 347.216 236.361 347.177 236.225C347.137 236.09 347.071 235.964 346.982 235.854C346.894 235.744 346.785 235.653 346.661 235.586C346.537 235.518 346.401 235.476 346.261 235.461Z" fill="#263238"/>
<path d="M295.233 238.09L225.891 230.98C225.604 230.952 225.318 231.038 225.095 231.22C224.872 231.402 224.73 231.665 224.7 231.951C224.686 232.093 224.7 232.236 224.741 232.371C224.782 232.507 224.85 232.634 224.94 232.744C225.03 232.853 225.141 232.944 225.267 233.011C225.392 233.078 225.529 233.12 225.671 233.133L295.013 240.243C295.155 240.257 295.297 240.243 295.434 240.203C295.57 240.162 295.696 240.095 295.807 240.005C295.917 239.915 296.008 239.805 296.076 239.68C296.143 239.554 296.185 239.417 296.2 239.276C296.214 239.135 296.2 238.992 296.16 238.856C296.119 238.72 296.052 238.593 295.962 238.483C295.872 238.372 295.762 238.281 295.637 238.214C295.512 238.146 295.374 238.104 295.233 238.09Z" fill="#263238"/>
<path opacity="0.2" d="M358.382 168.913C354.837 168.629 353.609 174.281 353.609 174.281C353.609 174.281 348.002 166.952 348.891 149.655C348.891 149.655 346.143 141.996 338.814 146.623C331.484 151.249 323.871 167.548 325.685 185.321L311.449 137.965C306.52 139.01 296.506 145.634 299.145 177.616L283.57 161.125C283.57 161.125 279.356 159.77 276.974 163.498C274.592 167.227 275.728 193.932 277.698 203.918C279.668 213.904 274.647 233.968 274.647 233.968C274.647 233.968 269.279 211.247 259.568 205.494L222.583 129.253L210.279 249.176L224.14 250.596L246.403 239.758C246.274 244.769 246.155 249.377 245.789 252.813L357.045 264.209L365.006 186.502C362.303 176.819 359.72 169.013 358.382 168.913Z" fill="black" fill-opacity="0.7"/>
</g>
<path d="M377.951 60.1852L365.006 186.502L357.045 264.209L245.789 252.813L224.14 250.596L210.279 249.176L222.565 129.253L231.186 45.1514L377.951 60.1852Z" stroke="#263238" stroke-linecap="round" stroke-linejoin="round"/>
<path d="M376.117 385.377L311.071 396.444C311.071 396.444 299.748 336.299 292.996 326.817C286.244 317.335 287.499 313.442 284.201 307.056C282.222 303.199 272.291 296.008 264.513 288.908C263.835 288.294 263.176 287.68 262.544 287.075C262.269 286.828 262.012 286.562 261.756 286.315C260.72 285.289 259.758 284.29 258.906 283.31C258.595 282.962 258.29 282.614 257.99 282.266C256.546 280.657 255.471 278.753 254.839 276.686C254.811 276.594 254.792 276.499 254.784 276.402C254.757 276.291 254.739 276.177 254.729 276.063C254.555 274.643 254.372 273.022 254.188 271.263C254.188 270.915 254.115 270.548 254.069 270.182L254.014 269.742C253.859 268.276 253.684 266.719 253.483 265.115C253.281 263.512 253.061 261.698 252.805 259.948C252.723 259.344 252.64 258.739 252.539 258.116C252.439 257.438 252.329 256.76 252.219 256.073L251.898 254.305C251.898 254.204 251.852 254.113 251.843 254.03L251.458 251.996C251.433 251.922 251.418 251.845 251.412 251.767C251.284 251.172 251.165 250.585 251.028 249.99C250.744 248.662 250.423 247.361 250.112 246.096C249.481 243.717 248.669 241.389 247.684 239.134C242.993 228.662 249.095 232.446 245.421 205.502C245.421 205.502 248.124 199.254 255.828 204.247C256.424 204.636 256.998 205.055 257.551 205.502C259.112 206.765 260.49 208.239 261.646 209.881C263.212 212.118 264.406 214.593 265.182 217.211C266.441 221.457 266.797 225.919 266.226 230.311C266.226 230.311 272.016 250.155 275.067 254.671C278.118 259.188 290.733 233.243 289.918 230.22C289.631 228.864 289.414 227.494 289.267 226.115C289.212 225.667 289.157 225.199 289.093 224.686C289.029 224.173 288.974 223.66 288.919 223.12C288.919 222.863 288.855 222.588 288.818 222.323C288.818 222.213 288.818 222.103 288.818 222.002C288.708 220.967 288.58 219.867 288.461 218.731C288.461 218.411 288.397 218.108 288.36 217.815C288.305 217.275 288.25 216.716 288.195 216.166C288.19 216.075 288.19 215.983 288.195 215.891C288.195 215.58 288.122 215.259 288.095 214.975C288.021 214.334 287.957 213.683 287.893 213.033C287.829 212.382 287.783 211.915 287.728 211.356C287.618 210.303 287.517 209.249 287.417 208.232C287.343 207.472 287.27 206.721 287.206 205.988C287.206 205.823 287.206 205.658 287.16 205.502C286.775 201.471 286.473 198.173 286.363 196.744C286.363 196.744 277.202 183.167 276.286 176.772C275.369 170.378 275.424 163.644 279.263 160.905C288.351 154.437 285.676 164.862 289.762 169.15C293.848 173.437 300.069 180.538 303.605 182.745C306.866 184.816 309.78 192.823 310.192 194.032C309.725 192.273 305.062 174.977 304.961 171.495C304.842 167.831 302.038 148.445 306.793 141.492C311.548 134.538 317.887 139.934 318.474 141.308C319.06 142.683 319.234 161.464 320.911 166.685C322.587 171.907 329.605 193.684 329.605 193.684C329.605 193.684 329.898 172.503 331.437 163.021C332.976 153.539 337.136 146.127 341.167 145.706C345.198 145.284 348.926 149.728 348.926 149.728C348.926 149.728 347.332 164.844 347.79 168.335C348.248 171.825 347.131 184.431 349.045 191.238C349.045 191.238 348.825 173.181 351.629 170.872C354.432 168.564 356.842 167.455 358.417 169.04C359.993 170.625 360.332 181.289 361.935 187.72C363.539 194.151 363.337 202.891 364.391 212.923C365.444 222.955 369.594 236.88 368.77 244.841C367.945 252.803 365.408 272.545 363.365 284.134C361.322 295.724 356.109 311.619 356.109 311.619C356.109 311.619 358.482 320.093 358.024 327.651C357.565 335.209 376.117 385.377 376.117 385.377Z" fill="white"/>
<path opacity="0.4" d="M320.828 166.631C322.074 170.497 326.243 183.433 328.313 189.892C328.313 189.892 319.225 196.57 319.445 202.782C319.665 208.993 317.787 221.535 313.701 221.169C309.615 220.802 310.036 194.738 308.653 190.35C309.487 192.237 310.018 193.767 310.128 194.069C309.825 192.942 304.97 174.995 304.869 171.441C304.869 170.607 304.677 168.94 304.484 166.787C304.484 166.787 313.527 158.129 320.16 163.424C320.31 164.507 320.533 165.578 320.828 166.631Z" fill="#FF8700"/>
<path opacity="0.4" d="M347.845 174.07C343.613 178.083 337.227 185.174 336.421 192.017C336.421 192.017 338.775 211.128 337.768 219.501L329.522 193.657C329.522 193.657 329.816 172.476 331.355 162.994C331.355 162.737 331.446 162.472 331.492 162.215C336.639 159.596 342.318 158.195 348.093 158.12C347.738 161.488 347.619 164.877 347.735 168.262C347.874 170.195 347.91 172.133 347.845 174.07Z" fill="#FF8700"/>
<path opacity="0.4" d="M351.592 170.772C351.491 170.836 351.244 171.038 350.887 171.34C351.099 170.928 351.338 170.53 351.601 170.149L351.592 170.772Z" fill="#FF8700"/>
<path opacity="0.4" d="M353.745 223.606C353.745 223.606 348.303 203.194 348.248 186.758C348.202 180.675 348.908 175.133 350.877 171.386C351.09 170.974 351.329 170.576 351.592 170.195V170.781C352.577 169.931 353.667 169.211 354.835 168.637C353.305 171.019 351.546 175.682 353.58 183.295C356.777 195.123 353.992 209.625 353.745 223.606Z" fill="#FF8700"/>
<path opacity="0.4" d="M278.687 262.505C278.687 262.505 280.143 281.955 264.514 288.917C263.836 288.304 263.176 287.69 262.544 287.085C262.269 286.838 262.013 286.572 261.756 286.325C260.721 285.299 259.759 284.3 258.907 283.32C258.587 282.963 258.303 282.614 257.991 282.275C256.547 280.667 255.471 278.763 254.84 276.696C254.812 276.604 254.793 276.508 254.785 276.412C254.758 276.301 254.74 276.187 254.73 276.073C254.556 274.653 254.372 273.032 254.189 271.273C254.189 270.924 254.116 270.558 254.07 270.192L254.015 269.752C253.859 268.286 253.685 266.729 253.484 265.125C253.282 263.522 253.062 261.708 252.806 259.958C252.714 259.354 252.632 258.74 252.54 258.126C252.439 257.448 252.329 256.77 252.219 256.083L251.899 254.306C251.899 254.205 251.853 254.113 251.844 254.031L251.459 251.997C251.434 251.923 251.419 251.846 251.413 251.768C251.285 251.172 251.166 250.586 251.028 249.991C250.735 248.671 250.415 247.371 250.112 246.097C256.296 240.151 270.57 243.88 263.662 230.092C263.662 230.092 267.143 218.292 257.551 205.503C264.111 210.789 267.473 220.088 266.227 230.239C266.227 230.239 272.017 250.082 275.068 254.599C278.119 259.115 290.734 233.17 289.919 230.147C289.632 228.791 289.415 227.421 289.268 226.043C289.213 225.594 289.158 225.127 289.094 224.614C289.03 224.101 288.975 223.588 288.92 223.047C288.92 222.791 288.856 222.516 288.819 222.25C288.819 222.14 288.819 222.03 288.819 221.929C288.709 220.885 288.59 219.795 288.462 218.659C288.462 218.338 288.398 218.036 288.361 217.743C288.306 217.202 288.251 216.643 288.196 216.094C288.191 216.002 288.191 215.91 288.196 215.819C288.196 215.507 288.123 215.187 288.095 214.903C288.022 214.261 287.958 213.611 287.894 212.96C287.83 212.31 287.784 211.843 287.729 211.284C287.619 210.23 287.518 209.177 287.417 208.16C287.344 207.399 287.28 206.639 287.207 205.915C287.207 205.75 287.207 205.585 287.161 205.43C287.408 206.63 292.053 228.745 294.71 233.894C297.376 239.171 285.796 267.086 278.687 262.505Z" fill="#FF8700"/>
<path opacity="0.4" d="M363.329 284.007C361.286 295.606 356.073 311.491 356.073 311.491C356.073 311.491 358.446 319.966 357.988 327.524C357.859 329.558 359.124 334.697 361.011 341.11C360.461 339.699 354.598 324.565 354.717 319.288C354.836 313.745 353.26 312.215 350.136 305.408C347.012 298.601 342.34 299.353 342.34 299.353C342.34 299.353 340.508 316.329 336.257 305.17C332.006 294.012 331.172 281.03 341.919 235.956C341.919 235.956 343.54 241.608 342.184 258.401C340.828 275.194 344.841 280.279 344.841 280.279C350.872 269.767 355.665 258.592 359.124 246.977C359.124 246.977 357.731 266.573 356.494 275.496C355.258 284.42 360.901 265.153 364.84 253.253C368.505 242.085 368.679 237.834 367.268 229.882C368.313 235.479 369.1 240.875 368.697 244.732C367.909 252.657 365.372 272.418 363.329 284.007Z" fill="#FF8700"/>
<path opacity="0.4" d="M289.828 321.788C292.998 326.827 300.758 333.487 305.402 351.911C310.047 370.334 307.116 390.499 307.116 390.499L289.828 321.788Z" fill="#FF8700"/>
<path opacity="0.2" d="M265.191 217.174C265.191 217.174 248.966 225.42 247.684 239.162C242.993 228.69 249.095 232.474 245.421 205.53C245.421 205.53 248.124 199.282 255.828 204.275C256.424 204.663 256.998 205.082 257.551 205.53C259.112 206.793 260.49 208.267 261.646 209.909L265.191 217.174Z" fill="black" fill-opacity="0.7"/>
<path d="M311.073 396.444C311.073 396.444 299.749 336.3 292.997 326.818C286.245 317.336 287.501 313.442 284.202 307.057C280.904 300.671 255.866 285.133 254.758 276.054C253.649 266.975 252.376 249.605 247.685 239.125C242.994 228.644 249.096 232.437 245.413 205.493C245.413 205.493 248.161 199.245 255.83 204.238C263.498 209.231 267.584 219.217 266.237 230.275C266.237 230.275 272.027 250.1 275.087 254.626C278.147 259.152 290.734 233.197 289.919 230.165C289.104 227.133 286.685 201.343 286.31 196.634C286.31 196.634 277.148 183.048 276.232 176.653C275.316 170.259 275.371 163.525 279.209 160.795C288.298 154.327 285.622 164.753 289.708 169.04C293.794 173.328 300.015 180.419 303.542 182.636C307.069 184.853 310.147 194.115 310.147 194.115C310.147 194.115 304.971 175.114 304.871 171.441C304.77 167.767 301.948 148.39 306.703 141.446C311.458 134.502 317.806 139.88 318.393 141.254C318.979 142.628 319.153 161.409 320.839 166.631L329.515 193.629C329.515 193.629 329.817 172.448 331.402 162.966C332.987 153.484 337.1 146.073 341.131 145.651C345.162 145.23 348.891 149.673 348.891 149.673C348.891 149.673 347.297 164.789 347.746 168.28C348.195 171.77 347.095 184.367 349.01 191.183C349.01 191.183 348.79 173.126 351.594 170.818C354.397 168.509 356.806 167.4 358.382 168.985C359.958 170.57 360.297 181.234 361.9 187.665C363.503 194.097 363.302 202.837 364.355 212.868C365.409 222.9 369.559 236.825 368.735 244.777C367.91 252.73 365.372 272.491 363.32 284.089C361.268 295.687 356.083 311.573 356.083 311.573C356.083 311.573 358.446 320.047 357.988 327.606C357.53 335.164 376.109 385.478 376.109 385.478" stroke="#263238" stroke-linecap="round" stroke-linejoin="round"/>
<path d="M329.515 193.612C331.411 198.064 336.093 216.863 337.76 219.465C338.609 220.908 339.847 222.083 341.333 222.855" stroke="#263238" stroke-linecap="round" stroke-linejoin="round"/>
<path d="M349.008 191.138C349.008 191.138 348.605 194.995 350.685 207.271C352.764 219.547 353.781 224.778 354.945 227.518" stroke="#263238" stroke-linecap="round" stroke-linejoin="round"/>
<path d="M310.146 194.115C312.684 201.6 314.123 213.528 315.57 217.119C317.018 220.711 318.318 221.453 318.318 221.453" stroke="#263238" stroke-linecap="round" stroke-linejoin="round"/>
<path d="M314.26 212.053C315.788 213.214 316.998 214.742 317.778 216.496" stroke="#263238" stroke-linecap="round" stroke-linejoin="round"/>
<path d="M275.087 254.635C275.087 254.635 276.47 264.557 282.691 263.796" stroke="#263238" stroke-linecap="round" stroke-linejoin="round"/>
<path d="M289.92 230.174C289.92 230.174 291.532 241.974 288.894 246.976" stroke="#263238" stroke-linecap="round" stroke-linejoin="round"/>
<path d="M339.61 230.285C339.61 230.285 343.788 232.841 340.994 240.362C338.2 247.884 333.335 278.135 333.335 278.135" stroke="#263238" stroke-linecap="round" stroke-linejoin="round"/>
<path d="M357.796 238.2C359.546 244.979 359.702 245.153 356.88 253.481C354.058 261.809 349.45 282.211 349.45 282.211" stroke="#263238" stroke-linecap="round" stroke-linejoin="round"/>
<path d="M356.082 311.473C356.082 311.473 353.334 305.976 355.606 301.396" stroke="#263238" stroke-linecap="round" stroke-linejoin="round"/>
<path d="M292.996 326.827C292.996 326.827 299.904 336.529 302.909 347.385" stroke="#263238" stroke-linecap="round" stroke-linejoin="round"/>
<path d="M343.824 156.764L345.693 154.923L346.536 154.675L346.481 155.591L344.768 157.781L343.824 156.764Z" fill="#757575" stroke="#263238" stroke-linecap="round" stroke-linejoin="round"/>
<path d="M345.345 157.791L342.303 164.68L260.584 273.646L251.486 267.837L263.808 252.336L337.209 160.264L343.687 156.151C344.083 156.253 344.446 156.459 344.737 156.747C345.028 157.035 345.238 157.395 345.345 157.791Z" fill="#FF8700"/>
<mask id="mask3_345_2344" style="mask-type:luminance" maskUnits="userSpaceOnUse" x="251" y="156" width="95" height="118">
<path d="M345.345 157.791L342.303 164.68L260.584 273.646L251.486 267.837L263.808 252.336L337.209 160.264L343.687 156.151C344.083 156.253 344.446 156.459 344.737 156.747C345.028 157.035 345.238 157.395 345.345 157.791Z" fill="white"/>
</mask>
<g mask="url(#mask3_345_2344)">
<path opacity="0.3" d="M345.345 157.791L342.303 164.68L260.584 273.645L251.486 267.837L263.808 252.336C269.488 251.75 270.441 255.084 270.441 255.084L340.847 163.196C340.15 160.722 337.182 160.246 337.182 160.246L343.659 156.132C344.063 156.232 344.433 156.439 344.729 156.73C345.026 157.022 345.238 157.388 345.345 157.791Z" fill="black" fill-opacity="0.7"/>
</g>
<path d="M345.345 157.791L342.303 164.68L260.584 273.646L251.486 267.837L263.808 252.336L337.209 160.264L343.687 156.151C344.083 156.253 344.446 156.459 344.737 156.747C345.028 157.035 345.238 157.395 345.345 157.791Z" stroke="#263238" stroke-linecap="round" stroke-linejoin="round"/>
<path d="M287.234 241.379C287.234 241.379 278.073 259.482 269.333 272.289L263.067 273.911C263.067 273.911 248.683 288.203 239.907 295.339C238.313 294.35 236.869 293.137 235.619 291.739C235.619 291.739 248.079 267.81 261.867 252.666C263.482 253.239 265.004 254.048 266.383 255.066C268.172 256.335 269.765 257.86 271.11 259.592L286.474 240.261L287.234 241.379Z" fill="#FF8700"/>
<mask id="mask4_345_2344" style="mask-type:luminance" maskUnits="userSpaceOnUse" x="235" y="240" width="53" height="56">
<path d="M287.234 241.379C287.234 241.379 278.073 259.482 269.333 272.289L263.067 273.911C263.067 273.911 248.683 288.203 239.907 295.339C238.313 294.35 236.869 293.137 235.619 291.739C235.619 291.739 248.079 267.81 261.867 252.666C263.482 253.239 265.004 254.048 266.383 255.066C268.172 256.335 269.765 257.86 271.11 259.592L286.474 240.261L287.234 241.379Z" fill="white"/>
</mask>
<g mask="url(#mask4_345_2344)">
<path opacity="0.3" d="M287.235 241.379C287.235 241.379 278.074 259.482 269.334 272.289L263.067 273.911C263.067 273.911 248.684 288.203 239.907 295.34L240.145 291.455C249.664 276.916 261.757 261.058 266.384 255.066C268.173 256.335 269.765 257.86 271.111 259.592L262.572 270.989L267.465 270.072L286.475 240.225L287.235 241.379Z" fill="black" fill-opacity="0.7"/>
</g>
<path d="M287.234 241.379C287.234 241.379 278.073 259.482 269.333 272.289L263.067 273.911C263.067 273.911 248.683 288.203 239.907 295.339C238.313 294.35 236.869 293.137 235.619 291.739C235.619 291.739 248.079 267.81 261.867 252.666C263.482 253.239 265.004 254.048 266.383 255.066C268.172 256.335 269.765 257.86 271.11 259.592L286.474 240.261L287.234 241.379Z" stroke="#263238" stroke-linecap="round" stroke-linejoin="round"/>
<path d="M318.301 221.435L292.777 246.17L288.701 250.128C291.495 242.946 290.139 231.805 289.965 230.495C289.965 230.422 289.965 230.376 289.965 230.376C289.965 230.376 289.965 230.23 289.965 230.184C289.679 228.828 289.461 227.458 289.314 226.079C289.259 225.631 289.205 225.163 289.14 224.65C289.076 224.137 289.021 223.624 288.966 223.084C288.966 222.827 288.902 222.552 288.866 222.287C288.866 222.177 288.866 222.067 288.866 221.966C288.756 220.931 288.627 219.831 288.508 218.695C288.508 218.375 288.444 218.072 288.407 217.779C288.353 217.239 288.298 216.68 288.243 216.13C288.237 216.039 288.237 215.947 288.243 215.855C288.243 215.544 288.169 215.223 288.142 214.939C288.068 214.298 288.004 213.647 287.94 212.997C287.876 212.347 287.83 211.879 287.775 211.32C287.665 210.267 287.565 209.213 287.464 208.196C287.391 207.436 287.317 206.685 287.253 205.952C287.253 205.787 287.253 205.622 287.207 205.466C286.823 201.435 286.52 198.137 286.41 196.708C286.41 196.708 277.249 183.131 276.333 176.736C275.417 170.342 275.472 163.608 279.31 160.869C288.398 154.401 285.723 164.826 289.809 169.114C293.895 173.401 300.116 180.502 303.652 182.709C307.188 184.917 310.147 194.115 310.147 194.115C312.685 201.591 314.123 213.519 315.571 217.11C317.018 220.702 318.301 221.435 318.301 221.435Z" fill="white"/>
<path d="M314.26 212.053C315.788 213.214 316.998 214.742 317.778 216.496" stroke="#263238" stroke-linecap="round" stroke-linejoin="round"/>
<path opacity="0.4" d="M289.671 169.077C293.72 173.401 299.941 180.419 303.477 182.654C302.982 182.407 296.469 179.237 292.832 182.764C289.048 186.429 286.309 196.644 286.309 196.644C286.309 196.644 277.147 183.067 276.231 176.672C275.315 170.277 275.37 163.544 279.209 160.804C288.26 154.337 285.603 164.799 289.671 169.077Z" fill="#FF8700"/>
<path opacity="0.4" d="M292.776 246.189L288.699 250.147C291.494 242.964 290.138 231.824 289.964 230.514C289.975 230.41 289.975 230.306 289.964 230.202C289.677 228.846 289.46 227.476 289.313 226.098C289.258 225.649 289.203 225.182 289.139 224.669C289.075 224.156 289.02 223.643 288.965 223.102C288.965 222.846 288.901 222.571 288.864 222.305C288.864 222.195 288.864 222.085 288.864 221.985C288.754 220.94 288.635 219.85 288.507 218.714C288.507 218.393 288.443 218.091 288.406 217.798C288.351 217.257 288.296 216.698 288.241 216.149C288.236 216.057 288.236 215.965 288.241 215.874C288.241 215.562 288.168 215.242 288.141 214.958C288.067 214.316 288.003 213.666 287.939 213.016C287.875 212.365 287.829 211.898 287.774 211.339C287.664 210.285 287.563 209.232 287.463 208.215C287.389 207.455 287.325 206.694 287.252 205.97C287.252 205.806 287.252 205.641 287.206 205.485C287.453 206.685 292.098 228.801 294.755 233.949C295.653 235.818 294.718 240.839 292.776 246.189Z" fill="#FF8700"/>
<path d="M318.31 221.434C318.31 221.434 317.018 220.692 315.561 217.101C314.105 213.509 312.676 201.581 310.138 194.096C310.138 194.096 307.032 184.935 303.496 182.681C299.96 180.428 293.73 173.41 289.662 169.086C285.595 164.762 288.251 154.336 279.163 160.841C275.325 163.589 275.242 170.314 276.186 176.699C277.129 183.084 286.263 196.68 286.263 196.68C286.639 201.389 289.058 227.187 289.873 230.211" stroke="#263238" stroke-linecap="round" stroke-linejoin="round"/>
<path d="M289.92 230.174C289.92 230.174 291.532 241.974 288.894 246.976" stroke="#263238" stroke-linecap="round" stroke-linejoin="round"/>
<path opacity="0.2" d="M133.231 244.603C133.231 244.603 139.03 271.538 126.47 291.125C113.91 310.712 104.235 315.943 99.9018 321.788C95.5685 327.633 78.5374 360.312 78.5374 360.312L58.6572 301.432L78.5374 228.589L133.231 244.603Z" fill="black" fill-opacity="0.7"/>
<path d="M250.406 224.018L127.131 275.899L114.424 281.249L90.4758 224.348L34.8662 92.2131L170.849 34.9819L250.406 224.018Z" fill="white"/>
<mask id="mask5_345_2344" style="mask-type:luminance" maskUnits="userSpaceOnUse" x="34" y="34" width="217" height="248">
<path d="M250.406 224.018L127.131 275.899L114.424 281.249L90.4758 224.348L34.8662 92.2131L170.849 34.9819L250.406 224.018Z" fill="white"/>
</mask>
<g mask="url(#mask5_345_2344)">
<path d="M135.715 59.5808L77.0181 84.3166C76.4884 84.5389 76.0688 84.9625 75.8514 85.4943C75.6341 86.026 75.6369 86.6224 75.8592 87.152C76.0815 87.6817 76.5052 88.1014 77.0369 88.3187C77.5687 88.5361 78.165 88.5333 78.6947 88.311L137.383 63.566C137.649 63.4594 137.892 63.3007 138.096 63.0993C138.301 62.8978 138.464 62.6576 138.574 62.3927C138.685 62.1277 138.742 61.8434 138.742 61.5562C138.741 61.2691 138.684 60.9849 138.573 60.7202C138.461 60.4555 138.298 60.2156 138.093 60.0146C137.888 59.8136 137.645 59.6554 137.378 59.5494C137.111 59.4433 136.826 59.3915 136.539 59.3969C136.252 59.4023 135.969 59.4648 135.706 59.5808H135.715Z" fill="#263238"/>
<path d="M124.492 73.9546L95.1751 86.3042C94.9103 86.4159 94.7007 86.6283 94.5925 86.8946C94.4842 87.1609 94.4862 87.4593 94.598 87.7242C94.7097 87.989 94.9221 88.1986 95.1884 88.3069C95.4547 88.4151 95.7532 88.4131 96.018 88.3013L125.334 75.9426C125.472 75.8923 125.598 75.8146 125.705 75.714C125.811 75.6135 125.897 75.4923 125.955 75.3579C126.013 75.2235 126.044 75.0785 126.044 74.932C126.045 74.7854 126.016 74.6402 125.959 74.5053C125.902 74.3703 125.817 74.2484 125.712 74.147C125.606 74.0455 125.481 73.9666 125.343 73.9151C125.206 73.8636 125.06 73.8406 124.913 73.8474C124.767 73.8541 124.623 73.8906 124.492 73.9546Z" fill="#263238"/>
<path d="M172.781 149.224C172.781 149.224 174.017 158.944 170.399 160.465C167.091 161.858 162.74 156.645 158.938 158.239C155.136 159.833 158.131 173.63 154.467 175.169C150.802 176.708 146.387 171.047 143.217 172.421C140.047 173.795 141.971 180.849 138.709 182.223C136.016 183.35 132.168 177.716 129.09 176.479C128.806 176.341 128.498 176.262 128.183 176.246C127.868 176.23 127.553 176.278 127.258 176.388C124.033 177.744 125.636 192.557 122.851 193.721C122.072 194.057 121.223 194.198 120.377 194.133C119.341 193.938 118.289 193.837 117.235 193.831C116.831 193.872 116.436 193.974 116.062 194.133C113.69 195.132 114.01 202.928 111.839 203.844C109.668 204.76 107.524 203.624 105.206 204.596C102.888 205.567 102.925 209.625 99.4619 211.082L100.928 214.554L185.313 179.044" fill="#BFBFBF"/>
<path d="M172.781 149.224C172.781 149.224 174.017 158.944 170.399 160.465C167.091 161.858 162.74 156.645 158.938 158.239C155.136 159.833 158.131 173.63 154.467 175.169C150.802 176.708 146.387 171.047 143.217 172.421C140.047 173.795 141.971 180.849 138.709 182.223C136.016 183.35 132.168 177.716 129.09 176.479C128.806 176.341 128.498 176.262 128.183 176.246C127.868 176.23 127.553 176.278 127.258 176.388C124.033 177.744 125.636 192.558 122.851 193.721C122.072 194.057 121.223 194.198 120.377 194.133C119.341 193.938 118.289 193.837 117.235 193.831C116.831 193.872 116.436 193.974 116.062 194.133C113.69 195.132 114.01 202.928 111.839 203.844C109.668 204.76 107.524 203.624 105.206 204.596C102.888 205.567 102.925 209.625 99.4619 211.082L100.928 214.554L185.313 179.044" stroke="#263238" stroke-miterlimit="10"/>
<path d="M83.8418 173.887L100.928 214.481L189.28 177.304" stroke="#263238" stroke-linecap="round" stroke-linejoin="round"/>
<path d="M179.569 165.33C179.569 165.33 179.148 164.817 178.525 164.204C177.435 163.15 175.703 161.812 174.384 162.371C173.065 162.93 172.982 165.046 173.01 167.337C173.01 170.085 173.284 173.108 171.883 173.695C170.692 174.199 169.629 173.447 168.53 172.623C167.275 171.707 165.992 170.662 164.444 171.313C161.842 172.412 162.611 175.802 161.695 178.706C161.446 179.542 161.006 180.308 160.41 180.944C159.814 181.58 159.078 182.068 158.26 182.371C156.015 183.287 153.734 182.371 151.581 180.923C147.917 178.45 144.692 174.437 142.585 175.326C139.222 176.746 142.924 185.834 139.314 187.354C137.298 188.206 133.121 181.858 129.062 176.361C125.856 172.027 122.723 168.253 120.817 169.032C116.465 170.864 123.639 192.604 120.478 193.932L120.377 193.978C119.869 194.188 119.316 194.27 118.769 194.217C118.221 194.165 117.694 193.979 117.235 193.676C116.099 193.034 115.165 192.109 113.909 192.641C111.573 193.63 112.938 202.15 110.373 203.231C107.808 204.312 106.26 202.746 103.365 203.964C100.919 204.999 99.4619 210.927 99.4619 210.927L100.928 214.399L185.313 178.889" fill="#757575"/>
<path d="M179.569 165.33C179.569 165.33 179.148 164.817 178.525 164.204C177.435 163.15 175.703 161.812 174.384 162.371C173.065 162.93 172.982 165.046 173.01 167.337C173.01 170.085 173.284 173.108 171.883 173.695C170.692 174.199 169.629 173.447 168.53 172.623C167.275 171.707 165.992 170.662 164.444 171.313C161.842 172.412 162.611 175.802 161.695 178.706C161.446 179.542 161.006 180.308 160.41 180.944C159.814 181.58 159.078 182.068 158.26 182.371C156.015 183.287 153.734 182.371 151.581 180.923C147.917 178.45 144.692 174.437 142.585 175.326C139.222 176.746 142.924 185.834 139.314 187.354C137.298 188.206 133.121 181.858 129.062 176.361C125.856 172.027 122.723 168.253 120.817 169.032C116.465 170.864 123.639 192.604 120.478 193.932L120.377 193.978C119.869 194.188 119.316 194.27 118.769 194.217C118.221 194.165 117.694 193.979 117.235 193.676C116.099 193.034 115.165 192.109 113.909 192.641C111.573 193.63 112.938 202.15 110.373 203.231C107.808 204.312 106.26 202.746 103.365 203.964C100.919 204.999 99.4619 210.927 99.4619 210.927L100.928 214.399L185.313 178.889" stroke="#263238" stroke-linecap="round" stroke-linejoin="round"/>
<path d="M161.705 194.307L132.389 206.657C132.124 206.769 131.915 206.981 131.806 207.247C131.698 207.514 131.7 207.812 131.812 208.077C131.924 208.342 132.136 208.551 132.402 208.66C132.669 208.768 132.967 208.766 133.232 208.654L162.548 196.305C162.813 196.193 163.023 195.98 163.131 195.714C163.239 195.448 163.237 195.149 163.125 194.885C163.014 194.62 162.801 194.41 162.535 194.302C162.269 194.194 161.97 194.196 161.705 194.307Z" fill="#263238"/>
<path d="M184.947 145.689L182.118 146.879C181.824 147.003 181.686 147.341 181.81 147.635L183 150.464C183.124 150.758 183.462 150.896 183.756 150.772L186.585 149.582C186.879 149.458 187.017 149.12 186.893 148.826L185.703 145.997C185.579 145.703 185.241 145.565 184.947 145.689Z" fill="#BFBFBF" stroke="#263238" stroke-miterlimit="10"/>
<path d="M200.293 140.887L188.566 145.825C188.446 145.871 188.312 145.87 188.192 145.82C188.073 145.771 187.977 145.677 187.925 145.559C187.876 145.441 187.875 145.309 187.923 145.191C187.971 145.072 188.064 144.978 188.181 144.927L199.917 139.989C200.035 139.94 200.167 139.94 200.286 139.988C200.404 140.036 200.499 140.128 200.549 140.246C200.575 140.305 200.589 140.368 200.59 140.432C200.59 140.497 200.579 140.56 200.555 140.62C200.531 140.68 200.496 140.734 200.451 140.78C200.406 140.826 200.352 140.862 200.293 140.887Z" fill="#263238"/>
<path d="M197.535 144.341L189.382 147.768C189.264 147.816 189.131 147.817 189.013 147.769C188.894 147.721 188.8 147.628 188.749 147.511C188.724 147.452 188.71 147.389 188.709 147.324C188.708 147.26 188.72 147.196 188.744 147.137C188.768 147.077 188.803 147.023 188.848 146.977C188.893 146.931 188.947 146.895 189.006 146.87L197.16 143.443C197.277 143.394 197.41 143.394 197.528 143.442C197.647 143.49 197.741 143.583 197.792 143.7C197.841 143.819 197.842 143.953 197.794 144.073C197.746 144.192 197.653 144.289 197.535 144.341Z" fill="#263238"/>
<path d="M188.621 154.411L185.792 155.601C185.498 155.725 185.36 156.063 185.484 156.357L186.674 159.186C186.798 159.48 187.136 159.618 187.43 159.494L190.259 158.304C190.552 158.18 190.69 157.842 190.567 157.548L189.376 154.719C189.253 154.425 188.914 154.287 188.621 154.411Z" fill="#757575" stroke="#263238" stroke-linecap="round" stroke-linejoin="round"/>
<path d="M203.958 149.608L192.232 154.537C192.172 154.562 192.107 154.574 192.042 154.574C191.977 154.574 191.913 154.561 191.853 154.536C191.793 154.511 191.738 154.474 191.693 154.428C191.647 154.382 191.61 154.327 191.586 154.267C191.561 154.207 191.549 154.142 191.549 154.077C191.549 154.012 191.562 153.948 191.587 153.888C191.612 153.828 191.649 153.774 191.695 153.728C191.741 153.682 191.796 153.646 191.856 153.621L203.583 148.683C203.643 148.658 203.707 148.646 203.772 148.646C203.837 148.646 203.902 148.659 203.962 148.684C204.022 148.709 204.076 148.746 204.122 148.792C204.168 148.838 204.204 148.893 204.229 148.953C204.253 149.013 204.266 149.078 204.266 149.143C204.265 149.208 204.252 149.272 204.227 149.332C204.202 149.392 204.165 149.447 204.119 149.492C204.073 149.538 204.018 149.574 203.958 149.599V149.608Z" fill="#263238"/>
<path d="M201.199 153.054L193.054 156.49C192.933 156.541 192.796 156.542 192.674 156.492C192.552 156.442 192.455 156.346 192.404 156.224C192.353 156.103 192.352 155.966 192.402 155.844C192.452 155.722 192.548 155.625 192.67 155.574L200.823 152.147C200.883 152.123 200.948 152.11 201.013 152.11C201.078 152.111 201.142 152.124 201.202 152.149C201.262 152.174 201.317 152.21 201.362 152.257C201.408 152.303 201.445 152.357 201.469 152.418C201.494 152.478 201.506 152.542 201.506 152.607C201.506 152.672 201.493 152.737 201.468 152.797C201.443 152.856 201.406 152.911 201.36 152.957C201.314 153.003 201.259 153.039 201.199 153.063V153.054Z" fill="#263238"/>
<path d="M219.384 185.559L124.106 225.649C123.841 225.761 123.631 225.973 123.523 226.239C123.415 226.506 123.417 226.804 123.529 227.069C123.64 227.334 123.853 227.543 124.119 227.652C124.385 227.76 124.684 227.758 124.949 227.646L220.227 187.547C220.365 187.496 220.491 187.419 220.597 187.318C220.704 187.218 220.789 187.096 220.848 186.962C220.906 186.827 220.937 186.683 220.937 186.536C220.938 186.389 220.909 186.244 220.851 186.109C220.794 185.974 220.71 185.852 220.604 185.751C220.499 185.65 220.373 185.571 220.236 185.519C220.099 185.468 219.952 185.445 219.806 185.451C219.66 185.458 219.516 185.495 219.384 185.559Z" fill="#263238"/>
<path d="M222.408 192.732L111.619 239.354C111.482 239.404 111.356 239.482 111.249 239.583C111.142 239.683 111.057 239.804 110.999 239.939C110.94 240.073 110.91 240.218 110.909 240.365C110.909 240.511 110.938 240.657 110.995 240.791C111.052 240.926 111.136 241.048 111.242 241.15C111.348 241.251 111.473 241.33 111.61 241.382C111.748 241.433 111.894 241.456 112.04 241.449C112.187 241.443 112.33 241.406 112.462 241.342L223.242 194.72C223.383 194.673 223.513 194.597 223.624 194.498C223.735 194.398 223.824 194.277 223.885 194.141C223.947 194.006 223.98 193.859 223.982 193.71C223.984 193.561 223.956 193.413 223.898 193.276C223.84 193.138 223.755 193.014 223.647 192.912C223.539 192.809 223.412 192.729 223.272 192.678C223.132 192.627 222.983 192.606 222.834 192.615C222.686 192.624 222.54 192.664 222.408 192.732Z" fill="#263238"/>
<path d="M225.422 199.905L114.643 246.527C114.505 246.577 114.379 246.655 114.272 246.756C114.166 246.856 114.081 246.977 114.022 247.112C113.964 247.246 113.933 247.391 113.933 247.538C113.932 247.684 113.961 247.83 114.018 247.964C114.076 248.099 114.16 248.221 114.265 248.323C114.371 248.424 114.497 248.503 114.634 248.555C114.771 248.606 114.917 248.629 115.064 248.622C115.21 248.616 115.354 248.579 115.486 248.515L226.247 201.893C226.384 201.843 226.51 201.765 226.617 201.664C226.724 201.564 226.809 201.443 226.867 201.308C226.926 201.174 226.956 201.029 226.957 200.882C226.957 200.736 226.928 200.59 226.871 200.455C226.814 200.321 226.73 200.199 226.624 200.097C226.518 199.996 226.393 199.917 226.256 199.865C226.118 199.814 225.972 199.791 225.826 199.798C225.679 199.804 225.536 199.841 225.404 199.905H225.422Z" fill="#263238"/>
<path d="M228.446 207.079L117.666 253.664C117.525 253.711 117.395 253.787 117.284 253.886C117.173 253.986 117.084 254.107 117.023 254.243C116.961 254.378 116.928 254.525 116.926 254.674C116.924 254.823 116.952 254.971 117.01 255.108C117.067 255.246 117.153 255.37 117.261 255.472C117.368 255.575 117.496 255.655 117.636 255.706C117.776 255.757 117.925 255.778 118.074 255.769C118.222 255.76 118.367 255.72 118.5 255.652L229.279 209.03C229.421 208.983 229.551 208.907 229.662 208.808C229.772 208.708 229.861 208.587 229.923 208.451C229.985 208.316 230.018 208.169 230.02 208.02C230.022 207.871 229.993 207.723 229.936 207.586C229.878 207.448 229.793 207.325 229.685 207.222C229.577 207.119 229.45 207.039 229.31 206.988C229.17 206.937 229.021 206.916 228.872 206.925C228.723 206.934 228.578 206.974 228.446 207.042V207.079Z" fill="#263238"/>
<path d="M184.93 233.829L120.681 260.874C120.543 260.924 120.417 261.002 120.31 261.102C120.204 261.203 120.119 261.324 120.06 261.459C120.002 261.593 119.971 261.738 119.971 261.885C119.97 262.031 119.999 262.176 120.056 262.311C120.114 262.446 120.198 262.568 120.304 262.67C120.409 262.771 120.535 262.85 120.672 262.901C120.809 262.953 120.955 262.976 121.102 262.969C121.248 262.962 121.392 262.926 121.524 262.862L185.772 235.827C185.904 235.771 186.022 235.691 186.122 235.589C186.222 235.488 186.301 235.368 186.355 235.236C186.409 235.104 186.436 234.963 186.435 234.821C186.434 234.678 186.405 234.538 186.35 234.407C186.294 234.275 186.214 234.157 186.112 234.057C186.011 233.957 185.891 233.878 185.759 233.824C185.627 233.77 185.486 233.743 185.344 233.744C185.201 233.745 185.061 233.774 184.93 233.829Z" fill="#263238"/>
<path d="M149.548 93.9814C149.548 93.9814 150.785 103.711 147.166 105.232C143.859 106.624 139.498 101.411 135.705 103.005C131.912 104.6 134.899 118.387 131.234 119.936C127.57 121.484 123.145 115.813 119.984 117.141C116.824 118.47 118.738 125.57 115.477 126.935C112.783 128.071 108.936 122.437 105.857 121.2C105.574 121.062 105.266 120.982 104.951 120.967C104.636 120.951 104.321 120.999 104.025 121.108C100.8 122.464 102.404 137.269 99.6185 138.442C98.8402 138.779 97.9901 138.918 97.1449 138.845C96.1078 138.658 95.0565 138.56 94.0026 138.552C93.5985 138.592 93.203 138.694 92.8299 138.854C90.4571 139.853 90.7778 147.649 88.6065 148.556C86.4353 149.463 84.2915 148.345 81.9737 149.316C79.6558 150.287 79.6925 154.346 76.2295 155.802L77.6953 159.275L162.118 123.765" fill="#BFBFBF"/>
<path d="M149.548 93.9814C149.548 93.9814 150.785 103.711 147.166 105.232C143.859 106.624 139.498 101.411 135.705 103.005C131.912 104.6 134.899 118.387 131.234 119.936C127.57 121.484 123.145 115.813 119.984 117.141C116.824 118.47 118.738 125.57 115.477 126.935C112.783 128.071 108.936 122.437 105.857 121.2C105.574 121.062 105.266 120.982 104.951 120.967C104.636 120.951 104.321 120.999 104.025 121.108C100.8 122.464 102.404 137.269 99.6185 138.442C98.8402 138.779 97.9901 138.918 97.1449 138.845C96.1078 138.658 95.0565 138.56 94.0026 138.552C93.5985 138.592 93.203 138.694 92.8299 138.854C90.4571 139.853 90.7778 147.649 88.6065 148.556C86.4353 149.463 84.2915 148.345 81.9737 149.316C79.6558 150.287 79.6925 154.346 76.2295 155.802L77.6953 159.275L162.118 123.765" stroke="#263238" stroke-miterlimit="10"/>
<path d="M154.999 106.944C154.999 106.944 155.769 111.653 153.909 112.441C152.361 113.092 151.408 112.185 149.777 112.13C148.981 112.105 148.189 112.259 147.459 112.579C145.966 113.202 145.627 115.217 145.343 117.379C145.013 120.045 144.848 122.94 142.897 123.792C141.532 124.369 140.057 124.03 138.536 123.499C136.108 122.656 133.561 121.319 131.097 122.354C129.906 122.858 129.072 124.186 128.422 125.753C126.892 129.536 126.416 135.015 124.757 135.711C122.403 136.71 118.088 132.66 115.999 133.54C113.91 134.419 114.762 138.047 113.067 138.762C111.373 139.476 110.401 137.369 107.415 138.624C104.428 139.88 105.885 144.295 101.671 146.073C97.4564 147.85 95.6058 144.579 91.5382 146.292C87.4705 148.006 88.2034 151.102 85.3267 152.312C82.4501 153.521 81.2408 151.395 79.1886 152.312C77.1365 153.228 76.6417 156.425 76.6143 156.627L77.7411 159.302L162.118 123.765" fill="#FF8700"/>
<path d="M154.999 106.944C154.999 106.944 155.769 111.653 153.909 112.441C152.361 113.092 151.408 112.185 149.777 112.13C148.981 112.105 148.189 112.259 147.459 112.579C145.966 113.202 145.627 115.217 145.343 117.379C145.013 120.045 144.848 122.94 142.897 123.792C141.532 124.369 140.057 124.03 138.536 123.499C136.108 122.656 133.561 121.319 131.097 122.354C129.906 122.858 129.072 124.186 128.422 125.753C126.892 129.536 126.416 135.015 124.757 135.711C122.403 136.71 118.088 132.66 115.999 133.54C113.91 134.419 114.762 138.047 113.067 138.762C111.373 139.476 110.401 137.369 107.415 138.624C104.428 139.88 105.885 144.295 101.671 146.073C97.4564 147.85 95.6058 144.579 91.5382 146.292C87.4705 148.006 88.2034 151.102 85.3267 152.312C82.4501 153.521 81.2408 151.395 79.1886 152.312C77.1365 153.228 76.6417 156.425 76.6143 156.627L77.7411 159.302L162.118 123.765" stroke="#263238" stroke-miterlimit="10"/>
<path d="M60.6094 118.681L77.6954 159.275L166.039 122.089" stroke="#263238" stroke-linecap="round" stroke-linejoin="round"/>
<path d="M138.207 138.469L108.891 150.819C108.626 150.929 108.416 151.14 108.307 151.406C108.198 151.671 108.199 151.969 108.309 152.234C108.42 152.499 108.631 152.709 108.896 152.818C109.162 152.927 109.46 152.926 109.725 152.816L139.041 140.466C139.172 140.411 139.291 140.33 139.391 140.229C139.491 140.128 139.57 140.008 139.624 139.876C139.677 139.744 139.704 139.603 139.703 139.46C139.702 139.318 139.673 139.177 139.618 139.046C139.563 138.915 139.482 138.796 139.381 138.696C139.28 138.596 139.16 138.517 139.028 138.464C138.896 138.41 138.755 138.383 138.612 138.384C138.47 138.385 138.329 138.414 138.198 138.469H138.207Z" fill="#263238"/>
<path d="M160.228 86.9574L157.399 88.1477C157.105 88.2714 156.967 88.6098 157.091 88.9036L158.281 91.7324C158.405 92.0262 158.743 92.1642 159.037 92.0406L161.866 90.8503C162.16 90.7266 162.298 90.3882 162.174 90.0944L160.984 87.2656C160.86 86.9718 160.522 86.8338 160.228 86.9574Z" fill="#BFBFBF" stroke="#263238" stroke-miterlimit="10"/>
<path d="M175.576 82.1538L163.85 87.0918C163.729 87.1381 163.596 87.1364 163.476 87.087C163.357 87.0375 163.261 86.9441 163.209 86.8261C163.16 86.707 163.161 86.5736 163.211 86.4551C163.261 86.3366 163.355 86.2427 163.474 86.1939L175.201 81.256C175.32 81.2076 175.453 81.2083 175.572 81.2581C175.69 81.3079 175.784 81.4027 175.833 81.5216C175.858 81.5799 175.872 81.6426 175.873 81.7062C175.874 81.7698 175.862 81.8329 175.838 81.8918C175.814 81.9507 175.779 82.0042 175.734 82.0492C175.689 82.0942 175.635 82.1298 175.576 82.1538Z" fill="#263238"/>
<path d="M172.819 85.6074L164.665 89.0338C164.544 89.0836 164.408 89.0831 164.286 89.0324C164.165 88.9817 164.069 88.885 164.019 88.7635C163.97 88.642 163.97 88.5057 164.021 88.3846C164.071 88.2635 164.168 88.1674 164.29 88.1176L172.443 84.6821C172.561 84.6332 172.694 84.6326 172.812 84.6807C172.93 84.7287 173.025 84.8213 173.075 84.9386C173.104 84.9991 173.12 85.0648 173.123 85.1318C173.125 85.1987 173.114 85.2654 173.09 85.328C173.066 85.3905 173.03 85.4475 172.983 85.4955C172.937 85.5436 172.881 85.5816 172.819 85.6074Z" fill="#263238"/>
<path d="M163.91 95.6786L161.081 96.8689C160.787 96.9926 160.649 97.331 160.773 97.6248L161.963 100.454C162.087 100.747 162.425 100.885 162.719 100.762L165.548 99.5715C165.841 99.4478 165.979 99.1094 165.856 98.8156L164.666 95.9868C164.542 95.693 164.203 95.555 163.91 95.6786Z" fill="#FF8700" stroke="#263238" stroke-miterlimit="10"/>
<path d="M179.24 90.8752L167.513 95.8132C167.394 95.8616 167.26 95.8609 167.142 95.8111C167.023 95.7613 166.93 95.6665 166.881 95.5476C166.855 95.4893 166.842 95.4266 166.841 95.363C166.84 95.2994 166.852 95.2363 166.876 95.1774C166.9 95.1185 166.935 95.065 166.98 95.02C167.025 94.975 167.078 94.9394 167.137 94.9154L178.864 89.9774C178.924 89.9528 178.988 89.9402 179.053 89.9404C179.118 89.9407 179.183 89.9537 179.243 89.9788C179.303 90.0039 179.357 90.0406 179.403 90.0867C179.449 90.1328 179.485 90.1875 179.51 90.2477C179.534 90.3078 179.547 90.3723 179.547 90.4373C179.547 90.5023 179.533 90.5666 179.508 90.6266C179.483 90.6866 179.447 90.741 179.401 90.7868C179.354 90.8326 179.3 90.8689 179.24 90.8936V90.8752Z" fill="#263238"/>
<path d="M176.483 94.3301L168.339 97.7565C168.217 97.8075 168.08 97.8082 167.958 97.7583C167.836 97.7085 167.739 97.6123 167.688 97.4908C167.637 97.3693 167.636 97.2325 167.686 97.1105C167.736 96.9885 167.832 96.8913 167.954 96.8403L176.107 93.414C176.168 93.3893 176.232 93.3767 176.297 93.377C176.362 93.3772 176.426 93.3902 176.486 93.4153C176.546 93.4404 176.601 93.4771 176.647 93.5232C176.692 93.5694 176.729 93.6241 176.753 93.6842C176.778 93.7444 176.791 93.8088 176.79 93.8738C176.79 93.9388 176.777 94.0031 176.752 94.0631C176.727 94.1231 176.69 94.1775 176.644 94.2234C176.598 94.2692 176.543 94.3054 176.483 94.3301Z" fill="#263238"/>
<path opacity="0.2" d="M127.131 275.898L114.424 281.248L90.4766 224.347C92.6157 222.225 94.0188 219.473 94.4801 216.496C95.9093 208.874 94.9015 184.367 113.985 181.838C133.068 179.31 116.971 222.222 117.851 230.394C118.657 237.851 129.532 259.499 127.131 275.898Z" fill="black" fill-opacity="0.7"/>
</g>
<path d="M250.406 224.018L127.131 275.899L114.424 281.249L90.4758 224.348L34.8662 92.2131L170.849 34.9819L250.406 224.018Z" stroke="#263238" stroke-linecap="round" stroke-linejoin="round"/>
<path d="M119.453 233.509C121.597 226.18 129.952 202.709 128.853 192.329C128.763 191.465 128.566 190.616 128.266 189.8C125.335 182.05 113.352 182.801 108.743 189.223C103.695 196.287 99.582 209.003 99.2155 216.707C98.8915 220.572 97.634 224.301 95.5509 227.573C94.8313 228.782 94.0196 229.933 93.1232 231.018L65.8039 166.201C63.0439 168.499 60.6336 171.187 58.6489 174.18C57.533 175.85 56.8124 177.752 56.5418 179.741C55.9829 186.136 48.7454 212.438 45.768 223.432C45.7038 223.67 45.6397 223.899 45.5847 224.119C42.6897 234.765 50.3303 274.305 48.1408 285.793C45.9512 297.282 44.6045 297.016 44.2838 305.179C44.0548 311.134 35.5347 329.237 25.961 347.825C20.4642 358.48 14.6742 369.272 9.88281 378.058L79.8025 375.154C81.0118 366.661 82.2578 357.692 83.3938 349.007C83.8876 345.395 84.5849 341.813 85.4826 338.279C87.0217 332.049 88.8998 326.415 90.0633 323.117C91.549 318.273 92.7723 313.352 93.7278 308.376C101.863 299.765 112.527 286.233 115.614 277.072V277.008C116.371 275.126 116.611 273.077 116.311 271.071C115.97 269.425 115.783 267.75 115.752 266.069C115.395 256.12 117.657 239.602 119.453 233.509Z" fill="white"/>
<path opacity="0.4" d="M95.5693 227.637C93.3981 231.989 90.7871 236.212 89.1563 241.086C87.5256 245.96 85.7025 246.656 80.8103 250.476C75.9181 254.297 72.3452 248.003 72.3452 248.003C72.3452 248.003 78.8223 241.278 76.6694 237.531C74.5164 233.784 66.4544 224.467 66.9308 219.328C67.4072 214.188 62.0478 202.663 62.0478 202.663C62.0478 202.663 74.2599 195.49 71.8871 187.089C70.5954 182.508 64.2007 177.625 58.6855 174.153C60.6703 171.16 63.0806 168.471 65.8406 166.173L93.1782 231.054C94.0608 229.978 94.8602 228.835 95.5693 227.637Z" fill="#FF8700"/>
<path opacity="0.4" d="M51.2642 267.407C51.4291 267.956 55.4051 281.084 52.0521 286.554C48.699 292.023 45.2543 299.279 46.8942 306.709C48.1951 312.645 37.2014 334.083 25.9971 347.844C35.5432 329.255 44.0633 311.152 44.3198 305.197C44.6405 297.034 45.9872 297.282 48.1768 285.812C50.3664 274.342 42.68 234.783 45.6208 224.137C45.6757 223.917 45.7399 223.688 45.804 223.45C47.9386 235.516 52.9041 259.546 54.2691 267.269C55.9457 277.127 51.4108 267.819 51.2642 267.407Z" fill="#FF8700"/>
<path opacity="0.4" d="M76.4033 346.652C84.5295 311.665 111.876 284.84 115.577 277.071C112.49 286.233 101.835 299.764 93.6909 308.376C92.7353 313.352 91.512 318.272 90.0263 323.116C88.8811 326.415 87.003 332.049 85.4456 338.279C77.5393 347.651 76.4033 346.652 76.4033 346.652Z" fill="#FF8700"/>
<path opacity="0.4" d="M119.453 233.51C117.62 239.602 115.394 256.12 115.742 266.042C114.304 259.812 111.537 251.896 111.079 240.875C110.301 222.186 120.891 228.929 117.227 219.685C113.562 210.441 103.008 222.278 108.193 202.791C111.977 188.564 122.76 188.692 128.294 189.801C128.593 190.616 128.79 191.465 128.88 192.329C129.952 202.709 121.597 226.18 119.453 233.51Z" fill="#FF8700"/>
<path d="M20.5186 358.773C29.2768 342.75 37.8061 326.269 43.9351 308.496C44.668 305.94 43.6877 302.605 44.4298 300.049C52.73 276.971 43.3121 252.941 44.8604 229.296C46.1704 219.978 49.1479 210.606 52.1803 201.198C53.582 194.409 54.1042 186.805 56.3488 179.971C58.6574 174.822 60.9294 168.84 65.8491 166.229C75.1937 187.639 84.5017 209.15 93.1867 231.109C97.1169 228.837 97.7674 223.78 98.4087 219.52C100.516 209.324 102.65 199.979 106.507 191.395C110.428 184.496 120.414 181.556 126.543 187.19C128.301 188.951 129.306 191.326 129.347 193.813C128.156 205.65 124.436 217.633 120.689 228.7C119.214 233.812 117.712 238.09 117.08 243.166C117.144 244.852 117.18 245.685 117.254 247.371C115.082 255.882 117.08 263.376 116.585 271.823C114.688 287.058 102.495 297.667 93.6814 308.981C91.501 317.492 89.3298 326.003 86.3523 334.551C82.6877 347.377 81.5151 360.019 80.26 372.341" stroke="#263238" stroke-linecap="round" stroke-linejoin="round"/>
<path d="M93.1498 231.082C91.4914 234.281 90.1416 237.631 89.1188 241.086C87.9736 245.575 82.1745 244.934 79.1787 247.719" stroke="#263238" stroke-linecap="round" stroke-linejoin="round"/>
<path d="M71.2725 223.175C71.2725 223.175 79.1604 225.923 83.7594 229.542C88.3585 233.161 91.7482 234.004 91.7482 234.004" stroke="#263238" stroke-linecap="round" stroke-linejoin="round"/>
<path d="M66.2441 203.615C66.2441 203.615 72.6571 205.402 77.3294 203.157C77.5426 200.871 77.944 198.607 78.5296 196.387" stroke="#263238" stroke-linecap="round" stroke-linejoin="round"/>
<path d="M78.8496 204.083C78.8496 204.083 78.9137 204.999 82.1569 204.999" stroke="#263238" stroke-linecap="round" stroke-linejoin="round"/>
<path d="M93.6908 308.375C89.2457 312.863 85.8318 318.265 83.6865 324.206" stroke="#263238" stroke-linecap="round" stroke-linejoin="round"/>
<path d="M45.1806 226.106C44.8874 231.603 51.337 251.099 53.2884 260.791C55.2398 270.484 55.9819 277.337 55.9819 277.337" stroke="#263238" stroke-linecap="round" stroke-linejoin="round"/>
</svg>
